HIERARCHY
ROOT Hips
{
	OFFSET 0.000000 0.000000 0.000000
	CHANNELS 6 Xposition Yposition Zposition Zrotation Yrotation Xrotation 
	JOINT LHipJoint
	{
		OFFSET 0.000000 0.000000 0.000000
		CHANNELS 3 Zrotation Yrotation Xrotation
		JOINT LeftUpLeg
		{
			OFFSET 1.363060 -1.794630 0.839290
			CHANNELS 3 Zrotation Yrotation Xrotation
			JOINT LeftLeg
			{
				OFFSET 2.448110 -6.726130 0.000000
				CHANNELS 3 Zrotation Yrotation Xrotation
				JOINT LeftFoot
				{
					OFFSET 2.562200 -7.039590 0.000000
					CHANNELS 3 Zrotation Yrotation Xrotation
					JOINT LeftToeBase
					{
						OFFSET 0.157640 -0.433110 2.322550
						CHANNELS 3 Zrotation Yrotation Xrotation
						End Site
						{
							OFFSET 0.000000 0.000000 0.000000
						}
					}
				}
			}
		}
	}
	JOINT RHipJoint
	{
		OFFSET 0.000000 0.000000 0.000000
		CHANNELS 3 Zrotation Yrotation Xrotation
		JOINT RightUpLeg
		{
			OFFSET -1.305520 -1.794630 0.839290
			CHANNELS 3 Zrotation Yrotation Xrotation
			JOINT RightLeg
			{
				OFFSET -2.542530 -6.985550 0.000000
				CHANNELS 3 Zrotation Yrotation Xrotation
				JOINT RightFoot
				{
					OFFSET -2.568260 -7.056230 0.000000
					CHANNELS 3 Zrotation Yrotation Xrotation
					JOINT RightToeBase
					{
						OFFSET -0.164730 -0.452590 2.363150
						CHANNELS 3 Zrotation Yrotation Xrotation
						End Site
						{
							OFFSET 0.000000 0.000000 0.000000
						}
					}
				}
			}
		}
	}
	JOINT LowerBack
	{
		OFFSET 0.000000 0.000000 0.000000
		CHANNELS 3 Zrotation Yrotation Xrotation
		JOINT Spine
		{
			OFFSET 0.028270 2.035590 -0.193380
			CHANNELS 3 Zrotation Yrotation Xrotation
			JOINT Spine1
			{
				OFFSET 0.056720 2.048850 -0.042750
				CHANNELS 3 Zrotation Yrotation Xrotation
				JOINT Neck
				{
					OFFSET 0.000000 0.000000 0.000000
					CHANNELS 3 Zrotation Yrotation Xrotation
					JOINT Neck1
					{
						OFFSET -0.054170 1.746240 0.172020
						CHANNELS 3 Zrotation Yrotation Xrotation
						JOINT Head
						{
							OFFSET 0.104070 1.761360 -0.123970
							CHANNELS 3 Zrotation Yrotation Xrotation
							End Site
							{
								OFFSET 0.000000 0.000000 0.000000
							}
						}
					}
				}
				JOINT LeftShoulder
				{
					OFFSET 0.000000 0.000000 0.000000
					CHANNELS 3 Zrotation Yrotation Xrotation
					JOINT LeftArm
					{
						OFFSET 3.362410 1.200890 -0.311210
						CHANNELS 3 Zrotation Yrotation Xrotation
						JOINT LeftForeArm
						{
							OFFSET 4.983000 -0.000000 -0.000000
							CHANNELS 3 Zrotation Yrotation Xrotation
							JOINT LeftHand
							{
								OFFSET 3.483560 -0.000000 -0.000000
								CHANNELS 3 Zrotation Yrotation Xrotation
								JOINT LeftFingerBase
								{
									OFFSET 0.000000 0.000000 0.000000
									CHANNELS 3 Zrotation Yrotation Xrotation
									JOINT LeftHandIndex1
									{
										OFFSET 0.715260 -0.000000 -0.000000
										CHANNELS 3 Zrotation Yrotation Xrotation
										End Site
										{
											OFFSET 0.000000 0.000000 0.000000
										}
									}
								}
								JOINT LThumb
								{
									OFFSET 0.000000 0.000000 0.000000
									CHANNELS 3 Zrotation Yrotation Xrotation
									End Site
									{
										OFFSET 0.000000 0.000000 0.000000
									}
								}
							}
						}
					}
				}
				JOINT RightShoulder
				{
					OFFSET 0.000000 0.000000 0.000000
					CHANNELS 3 Zrotation Yrotation Xrotation
					JOINT RightArm
					{
						OFFSET -3.136600 1.374050 -0.404650
						CHANNELS 3 Zrotation Yrotation Xrotation
						JOINT RightForeArm
						{
							OFFSET -5.241900 -0.000000 -0.000000
							CHANNELS 3 Zrotation Yrotation Xrotation
							JOINT RightHand
							{
								OFFSET -3.444170 -0.000000 -0.000000
								CHANNELS 3 Zrotation Yrotation Xrotation
								JOINT RightFingerBase
								{
									OFFSET 0.000000 0.000000 0.000000
									CHANNELS 3 Zrotation Yrotation Xrotation
									JOINT RightHandIndex1
									{
										OFFSET -0.622530 -0.000000 -0.000000
										CHANNELS 3 Zrotation Yrotation Xrotation
										End Site
										{
											OFFSET 0.000000 0.000000 0.000000
										}
									}
								}
								JOINT RThumb
								{
									OFFSET 0.000000 0.000000 0.000000
									CHANNELS 3 Zrotation Yrotation Xrotation
									End Site
									{
										OFFSET 0.000000 0.000000 0.000000
									}
								}
							}
						}
					}
				}
			}
		}
	}
}
MOTION
Frames: 5
Frame Time: 0.008333
-30.158555 17.353415 7.098731 -176.711119 -32.410866 -171.741519 16.650070 2.498452 -4.095278 -31.846145 -8.998334 -6.282867 -10.043624 9.540094 21.735413 1.236816 3.780765 -21.007182 14.615400 -19.290200 -74.075500 -19.185404 -1.569945 -2.770059 25.173674 30.389646 -8.972273 12.266130 1.407451 -8.112337 1.556519 -24.528939 -34.671330 -0.653200 -5.169700 14.393100 -3.875191 1.153867 12.068652 0.439004 0.801230 -4.765646 2.875394 0.443824 -16.472252 -11.483536 -10.377718 -16.999240 16.801374 -13.445222 8.768174 7.857200 -6.184600 11.330500 7.811431 -7.144825 0.831991 -85.655184 6.019139 2.563283 8.150747 -19.990276 -3.746335 1.005911 2.070454 20.647230 41.669482 34.048100 24.569000 -7.125000 0.000000 0.000000 14.933600 68.275100 8.416800 -10.618422 7.615161 2.366797 75.213510 -12.023651 47.547755 -28.348361 41.590649 -8.656960 0.636296 -2.491363 -12.863758 -24.781272 -15.062593 5.603900 7.125000 0.000000 0.000000 2.122300 -43.377500 0.085000 
-30.119049 17.368517 7.177852 -176.336906 -32.027943 -171.988347 16.654385 2.550901 -4.044029 -31.786117 -10.309545 -4.983975 -10.547290 8.622318 19.687072 1.027272 5.093193 -21.304427 13.855700 -19.069700 -71.763400 -19.205316 -1.585682 -2.781311 25.061877 30.454219 -8.977465 12.364270 0.967382 -7.079505 1.828195 -24.994316 -33.025454 -0.324200 -3.659700 10.121100 -3.846070 1.096946 12.093755 0.487517 0.746473 -4.722314 3.011796 0.426471 -16.246032 -11.130402 -10.381546 -17.681707 16.449925 -13.500778 9.147156 7.577000 -6.155200 11.636200 7.842850 -7.141368 0.818560 -85.563836 5.980371 1.361321 7.806275 -19.452820 -3.574627 0.979538 2.092185 21.988665 39.046418 32.928043 22.038100 -7.125000 0.000000 0.000000 10.987400 66.284000 5.670000 -10.611183 7.613773 2.354537 75.096871 -12.054340 48.243136 -28.519840 41.687029 -8.691031 0.640321 -2.478826 -12.917725 -24.602107 -14.802108 5.450400 7.125000 0.000000 0.000000 2.250400 -43.092100 0.106000 
-30.076589 17.384384 7.261787 -176.093944 -31.679441 -172.034575 16.657660 2.570121 -3.984322 -31.849716 -11.772249 -3.839630 -11.015587 7.766565 17.726414 0.876529 6.279683 -21.894655 12.823300 -18.717400 -68.575800 -19.176383 -1.571073 -2.800747 24.687386 30.466445 -9.180666 12.457612 0.378266 -5.746619 2.025272 -25.279004 -32.172325 -0.109200 -2.130800 5.867400 -3.923446 0.941587 11.994884 0.576880 0.530003 -4.714118 3.337525 0.353996 -16.077028 -10.918534 -10.275434 -18.190001 16.104203 -13.364009 9.524324 7.361500 -6.062100 11.870800 7.911258 -7.125940 0.795782 -85.743933 5.976586 -0.376941 7.446653 -18.903132 -3.425501 0.976339 2.111252 23.412207 36.880857 32.364558 20.267100 -7.125000 0.000000 0.000000 8.011300 65.059800 3.897700 -10.622683 7.593649 2.325111 74.916554 -11.491402 49.309267 -28.230692 41.389314 -8.491007 0.637450 -2.468126 -12.836724 -24.296143 -14.741717 5.357000 7.125000 0.000000 0.000000 2.520400 -43.014100 0.123600 
-30.046605 17.397735 7.334451 -175.914296 -31.223619 -172.158181 16.794232 2.677814 -3.825029 -32.767544 -15.236003 -0.494496 -11.962190 5.826859 13.601930 0.680321 9.139145 -24.206634 10.822300 -17.847000 -62.203000 -19.172989 -1.624941 -2.801934 24.458473 30.497499 -8.953656 12.557392 -0.034999 -4.641983 2.321168 -26.303191 -31.940605 -0.010400 -0.658700 1.810100 -4.106045 0.709931 12.051788 0.707269 0.173909 -4.747504 3.891088 0.245702 -16.142927 -10.808896 -9.918544 -18.397847 15.924878 -12.875792 9.869154 7.318700 -5.838400 11.970300 7.972584 -7.139745 0.764713 -86.191989 6.316023 -2.189553 7.342627 -18.660231 -3.310935 0.858258 2.201838 24.473109 32.669293 32.852877 17.896400 -7.125000 0.000000 0.000000 2.319200 64.462100 1.093100 -10.546489 7.622613 2.308326 74.196461 -11.853018 50.889095 -28.812664 41.712373 -8.677000 0.686464 -2.429445 -12.843446 -23.720781 -15.005032 5.357700 7.125000 0.000000 0.000000 3.033600 -43.281600 0.128800 
-30.015197 17.408131 7.395624 -175.515214 -30.851526 -172.451426 16.753849 2.699476 -3.831727 -32.328951 -15.040495 -0.633832 -11.943539 5.776557 13.537007 0.514419 9.733039 -23.986163 9.470200 -17.101000 -57.702600 -19.181355 -1.652544 -2.820015 24.500108 30.502702 -8.835199 12.736290 -0.563686 -3.373271 3.174545 -29.426371 -31.073007 -0.135500 2.372900 -6.537500 -3.715823 0.579696 12.032285 0.664354 0.072474 -4.726458 3.475172 0.118978 -15.992598 -10.254998 -9.715471 -18.666225 15.854265 -12.758293 10.048917 7.207600 -5.741400 12.054200 7.947225 -7.114452 0.768660 -85.812461 6.413570 -2.600009 7.476141 -18.696562 -3.294081 0.780189 2.210097 24.489923 31.328660 32.551400 16.966700 -7.125000 0.000000 0.000000 0.761700 63.828900 0.347700 -10.585290 7.622651 2.287820 74.606353 -11.704487 51.501722 -28.643257 41.621401 -8.560023 0.704583 -2.441263 -12.708532 -23.419144 -15.497172 5.490500 7.125000 0.000000 0.000000 3.358600 -43.767500 0.102300 
